<svg xmlns="http://www.w3.org/2000/svg" width="15.998" height="14.992" viewBox="0 0 15.998 14.992" fill="none">
  <path d="M 15.899 7.161 L 12.269 0.423 C 12.137 0.18 11.893 0 11.63 0 L 4.369 0 C 4.105 0 3.861 0.18 3.729 0.423 L 0.099 7.146 C -0.033 7.39 -0.033 7.697 0.099 7.941 L 3.729 14.624 C 3.861 14.867 4.105 14.992 4.369 14.992 L 11.629 14.992 C 11.893 14.992 12.137 14.871 12.269 14.627 L 15.899 7.934 C 16.031 7.69 16.031 7.405 15.899 7.161 L 15.899 7.161 Z M 12.893 10.401 C 12.893 10.5 12.837 10.592 12.757 10.641 L 8.132 13.488 C 8.092 13.512 8.047 13.525 8.001 13.525 C 7.955 13.525 7.91 13.512 7.871 13.488 L 3.243 10.641 C 3.162 10.592 3.106 10.5 3.106 10.401 L 3.106 4.709 C 3.106 4.609 3.161 4.518 3.242 4.468 L 7.866 1.622 C 7.906 1.598 7.951 1.585 7.997 1.585 C 8.043 1.585 8.088 1.598 8.128 1.622 L 12.756 4.468 C 12.836 4.518 12.893 4.609 12.893 4.709 L 12.893 10.401 Z" fill="currentColor" fill-rule="nonzero"></path>
</svg>